In zijn derde programma 'Dedication' zal Goedemondt geen moment onbenut laten om zijn publiek op zijn geheel eigen wijze te boeien en te verrassen en bovenal rollend van de lach op de theaterstoel achter te laten.

Waar de voorstelling over gaat? Over het zonder verontschuldiging wraak nemen op de volwassen wereld. Schreeuwen, fluisteren, roddelen, vertellen en meenemen. Vooral dat laatste. Mensen meenemen naar een plek die helemaal van mij is. Of we aankomen doet er niet toe. Het gaat erom dat je meekomt.

General
Format                           : AVI
Format/Info                      : Audio Video Interleave
File size                        : 692 MiB
Duration                         : 1h 29mn
Overall bit rate                 : 1 080 Kbps

Video
ID                               : 0
Format                           : MPEG-4 Visual
Format profile                   : Simple@L3
Format settings, BVOP            : No
Format settings, QPel            : No
Format settings, GMC             : No warppoints
Format settings, Matrix          : Default (H.263)
Codec ID                         : XVID
Codec ID/Hint                    : XviD
Duration                         : 1h 29mn
Bit rate                         : 850 Kbps
Width                            : 672 pixels
Height                           : 368 pixels
Display aspect ratio             : 16:9
Frame rate                       : 30.000 fps
Color space                      : YUV
Chroma subsampling               : 4:2:0
Bit depth                        : 8 bits
Scan type                        : Progressive
Bits/(Pixel*Frame)               : 0.115
Stream size                      : 545 MiB (79%)
Writing library                  : XviD 1.1.2 (UTC 2006-11-01)

Audio
ID                               : 1
Format                           : AC-3
Format/Info                      : Audio Coding 3
Mode extension                   : CM (complete main)
Codec ID                         : 2000
Duration                         : 1h 29mn
Bit rate mode                    : Constant
Bit rate                         : 224 Kbps
Channel(s)                       : 2 channels
Channel positions                : Front: L R
Sampling rate                    : 48.0 KHz
Bit depth                        : 16 bits
Stream size                      : 144 MiB (21%)
Alignment                        : Split accross interleaves
Interleave, duration             : 500 ms (15.00 video frames)
Interleave, preload duration     : 500 ms

Leave your comment about Audio/Video/Movie.